<svg t="1716991819314" class="icon" viewBox="0 0 1024 1024" version="1.1"
  xmlns="http://www.w3.org/2000/svg"
  p-id="1928" width="24" height="24">
  <path
    d="M862 902c0 16.569-13.431 30-30 30H192c-16.569 0-30-13.431-30-30V122c0-16.569 13.431-30 30-30h476l194 194v616z"
    fill="#4895FF" p-id="1929"></path>
  <path d="M862 286H698c-16.569 0-30-13.431-30-30V92" fill="#FFFFFF" fill-opacity=".296" p-id="1930"></path>
  <path d="M290 349m37 0l224.931 0q37 0 37 37l0 0q0 37-37 37l-224.931 0q-37 0-37-37l0 0q0-37 37-37Z"
    fill="#FFFFFF" p-id="1931"></path>
  <path d="M290 511m37 0l370 0q37 0 37 37l0 0q0 37-37 37l-370 0q-37 0-37-37l0 0q0-37 37-37Z"
    fill="#FFFFFF"
    p-id="1932"></path>
  <path d="M290 673m37 0l370 0q37 0 37 37l0 0q0 37-37 37l-370 0q-37 0-37-37l0 0q0-37 37-37Z"
    fill="#FFFFFF"
    p-id="1933"></path>
</svg>