<svg width="1024" height="1024" xmlns="http://www.w3.org/2000/svg" p-id="11046" version="1.1" class="icon" t="1716099527694">

 <g>
  <title>Layer 1</title>
  <path id="svg_2" fill="#13227a" p-id="11048" d="m956.27401,401.52898c55.98202,-59.32618 29.00357,-185.25526 29.00357,-185.25526s-20.53059,-27.21483 -42.37204,-27.21483c-11.93789,0 -24.17356,8.05854 -33.72101,32.82459c0.41547,25.06589 -28.82858,55.44683 -65.88966,55.44683c-13.66728,0 -28.52978,-4.05844 -43.21013,-14.20656c-82.00571,-47.14781 -179.88597,-74.60312 -284.98566,-74.7822c-105.10071,0.17806 -202.98097,27.63336 -284.98668,74.7822c-14.73868,10.08672 -29.48043,14.20656 -43.14873,14.20656c-37.1235,0 -66.30819,-30.31852 -66.01041,-55.44683c-9.60987,-24.76708 -21.84145,-32.82459 -33.66268,-32.82459c-21.84247,0 -42.37307,27.21483 -42.37307,27.21483s-27.03575,125.93011 28.94524,185.25526c-63.02236,76.56991 -79.61015,190.63273 -64.00064,243.13857c6.94211,18.73469 9.66718,33.96968 28.19209,58.25887c45.77453,69.05168 130.28632,115.54355 227.02969,115.54355c72.15946,0 137.57124,-25.84155 185.19693,-67.49932l64.87352,84.68984l59.86444,-81.94329c47.26753,39.98672 111.129,64.69547 181.49154,64.69547c104.92163,0 195.46274,-54.72846 237.65672,-133.39001c6.3885,-13.30298 16.32276,-37.3384 18.62827,-47.62672c15.96665,-46.65355 6.56041,-159.29705 -56.5213,-235.86696zm-872.74204,-150.5222c5.37236,12.77086 14.08684,24.8295 25.7249,35.21503c21.30626,18.97824 48.87822,29.48452 77.76513,29.48452c23.69568,0 47.26754,-7.28184 68.15935,-21.12718c77.46633,-44.22627 167.28908,-67.68249 259.97504,-67.86055c92.69005,0.17806 182.51178,23.63428 259.91977,67.86055c20.94606,13.84636 44.46368,21.12718 68.27602,21.12718c28.82448,0 56.45887,-10.50526 77.76513,-29.48452c11.57973,-10.44386 20.35151,-22.44315 25.78322,-35.21503c3.75963,38.37603 3.16611,97.34507 -23.75401,125.87075l-17.1281,17.96619c-42.49279,-26.0237 -93.9395,-41.42241 -149.50605,-41.42241c-112.14106,0 -207.87238,62.42986 -245.65182,149.98292c-37.77842,-87.55306 -133.50974,-149.98292 -245.71424,-149.98292c-53.17611,0 -102.53528,14.08683 -144.015,38.13964l-13.84635,-14.68444c-26.915,-28.46633 -27.63234,-87.49268 -23.75299,-125.86973zm181.55397,529.02781c-121.09499,0 -219.63119,-87.01786 -219.63119,-194.08844c0,-107.00917 98.59862,-194.08537 219.63119,-194.08537c121.09908,0 219.6936,87.0762 219.6936,194.08537c0,107.01327 -98.5362,194.08844 -219.6936,194.08844zm248.75857,11.39861l-51.56133,-62.50764s0,-48.32256 51.56133,-48.32256c50.40192,0 49.54746,48.32256 49.54746,48.32256l-49.54746,62.50764zm242.61055,-11.39861c-121.09601,0 -219.63119,-87.01786 -219.63119,-194.08844c0,-107.00917 98.5362,-194.08537 219.63119,-194.08537c121.21574,0 219.69054,87.0762 219.69054,194.08537c-0.00103,107.01327 -98.41648,194.08844 -219.69054,194.08844z"/>
  <path stroke="null" id="svg_5" d="m95.99999,597c0,64.93843 107.84118,94.88964 171.47072,94c63.62954,-0.88964 149.735,-30.86681 148.52746,-85c-1.20754,-54.13319 -59.30161,87 -240.30052,26" opacity="NaN" fill="#13227a"/>
  <path stroke="null" id="svg_6" d="m603.99999,597c0,64.93843 107.84118,94.88964 171.47072,94c63.62955,-0.88964 149.735,-30.86681 148.52746,-85c-1.20754,-54.13319 -59.30161,87 -240.30052,26" opacity="NaN" fill="#13227a"/>
 </g>
</svg>