<svg data-v-24045c="" t="1716099527694" class="icon" viewBox="0 0 1024 1024" version="1.1"
  xmlns="http://www.w3.org/2000/svg" p-id="11046" width="32" height="32">
  <path data-v-24045c=""
    d="M756.454036 455.838909c-7.101745 0-14.084787 0.596588-21.008476 1.432629 8.116865 9.130961 13.130042 20.530592 13.130042 33.064046 0 29.782304-27.334555 53.952796-60.99519 53.952796-23.693632 0-44.045145-12.175297-54.251601-29.78128-15.21861 20.530592-24.112164 45.060265-24.112164 71.379701 0 71.91796 65.889663 130.167618 147.237389 130.167618s147.296741-58.249659 147.296741-130.167618c0-71.916936-65.949015-130.047892-147.296741-130.047892zM256.075725 716.771757c81.765235 0 148.013055-58.489112 148.013055-130.824581 0-72.215742-66.24782-130.765229-148.013055-130.765229-15.576767 0-30.556946 2.148943-44.642757 6.087648 6.207375 8.355295 9.848299 18.322297 9.848299 29.064966 0 29.782304-27.334555 53.952796-60.995189 53.952796-14.860453 0-28.229948-4.89345-38.853913-12.652158-8.534374 16.531512-13.488199 34.854832-13.488199 54.310954 0.058328 72.27714 66.366523 130.825604 148.131759 130.825604z"
    p-id="11047" fill="#13227a"></path>
  <path data-v-24045c=""
    d="M956.274014 401.528979c55.982012-59.326177 29.003568-185.255261 29.003568-185.255261s-20.530592-27.214828-42.37204-27.214828c-11.93789 0-24.173562 8.058536-33.721009 32.824593 0.415462 25.065885-28.828582 55.446823-65.889663 55.446823-13.667278 0-28.529777-4.058432-43.210127-14.20656-82.005712-47.14781-179.885973-74.603115-284.98566-74.782194-105.10071 0.178055-202.980971 27.633361-284.986683 74.782194-14.738679 10.086729-29.480428 14.20656-43.148729 14.20656-37.123502 0-66.308195-30.318516-66.010413-55.446823-9.609869-24.76708-21.841447-32.824593-33.662681-32.824593-21.842471 0-42.373063 27.214828-42.373063 27.214828s-27.03575 125.930107 28.945239 185.255261c-63.022359 76.56991-79.610152 190.632735-64.00064 243.138576 6.942109 18.73469 9.667174 33.969673 28.192086 58.258869 45.774533 69.051679 130.286322 115.543549 227.02969 115.543549 72.15946 0 137.571239-25.841551 185.196933-67.499323l64.873519 84.689844 59.864436-81.94329c47.267537 39.986713 111.129007 64.695464 181.491541 64.695464 104.921631 0 195.46274-54.728462 237.656725-133.390009 6.388501-13.302981 16.322757-37.338397 18.628266-47.626717 15.966647-46.653553 6.560416-159.297053-56.521295-235.866963z m-872.742041-150.522202c5.372358 12.770861 14.086833 24.829502 25.724895 35.215037 21.306258 18.978237 48.878221 29.484521 77.765131 29.484521 23.695678 0 47.267537-7.281847 68.159356-21.12718 77.466326-44.226271 167.289074-67.682495 259.975033-67.86055 92.690052 0.178055 182.511777 23.63428 259.919774 67.86055 20.946055 13.846356 44.463678 21.12718 68.276013 21.12718 28.824489 0 56.458873-10.505261 77.765131-29.484521 11.579733-10.443863 20.351514-22.443152 25.783223-35.215037 3.759627 38.376029 3.166109 97.345072-23.754006 125.870756l-17.128099 17.966187c-42.49279-26.0237-93.939509-41.422412-149.506059-41.422412-112.141056 0-207.872375 62.429865-245.651816 149.98292-37.778418-87.553055-133.509736-149.98292-245.714238-149.98292-53.176107 0-102.535281 14.086833-144.014998 38.139646l-13.846356-14.684444c-26.915-28.466332-27.632337-87.49268-23.752984-125.869733z m181.553963 529.027816c-121.094986 0-219.631186-87.017866-219.631186-194.08844 0-107.009176 98.598622-194.08537 219.631186-194.085371 121.099079 0 219.693608 87.076194 219.693607 194.085371 0 107.013269-98.5362 194.08844-219.693607 194.08844z m248.758573 11.398607l-51.561329-62.507636s0-48.322565 51.561329-48.322565c50.401923 0 49.547463 48.322565 49.547463 48.322565l-49.547463 62.507636z m242.61055-11.398607c-121.096009 0-219.631186-87.017866-219.631186-194.08844 0-107.009176 98.5362-194.08537 219.631186-194.085371 121.215736 0 219.690538 87.076194 219.690538 194.085371-0.001023 107.013269-98.416474 194.08844-219.690538 194.08844z"
    p-id="11048" fill="#13227a"></path>
</svg>