<svg t="1716991770737" class="icon" viewBox="0 0 1024 1024" version="1.1"
  xmlns="http://www.w3.org/2000/svg"
  p-id="1760" width="24" height="24">
  <path
    d="M862 902c0 16.569-13.431 30-30 30H192c-16.569 0-30-13.431-30-30V122c0-16.569 13.431-30 30-30h476l194 194v616z"
    fill="#FF6359" p-id="1761"></path>
  <path d="M862 286H698c-16.569 0-30-13.431-30-30V92" fill="#FFFFFF" fill-opacity=".296" p-id="1762"></path>
  <path
    d="M391.269 705h75.544V598.642h42.245c97.412 0 135.681-31.311 135.681-121.268 0-82.999-32.305-117.292-135.681-117.292H391.269V705z m75.544-166.992V419.722h32.305c50.694 0 68.586 14.91 68.586 59.143 0 45.724-17.395 59.143-68.586 59.143h-32.305z"
    fill="#FFFFFF" p-id="1763"></path>
</svg>