<svg t="1723386088367" class="icon" viewBox="0 0 1024 1024" version="1.1"
  xmlns="http://www.w3.org/2000/svg" p-id="1087" width="128" height="128">
  <path
    d="M862 902c0 16.569-13.431 30-30 30H192c-16.569 0-30-13.431-30-30V122c0-16.569 13.431-30 30-30h476l194 194v616z"
    fill="#7DB4FF" p-id="1088"></path>
  <path d="M862 286H698c-16.569 0-30-13.431-30-30V92" fill="#FFFFFF" fill-opacity=".296" p-id="1089"></path>
  <path
    d="M289 92h70v70h-70zM359 162h70v70h-70zM289 232h70v70h-70zM359 302h70v70h-70zM289 372h70v70h-70zM289 468h140v110c0 16.569-13.431 30-30 30h-80c-16.569 0-30-13.431-30-30V468z"
    fill="#FFFFFF" p-id="1090"></path>
</svg>